<svg width="2383" height="2376" xmlns="http://www.w3.org/2000/svg" xmlns:xlink="http://www.w3.org/1999/xlink" xml:space="preserve" overflow="hidden"><g transform="translate(-794 -51)"><path d="M1092.89 343.453 1352.73 343.453 1352.73 603.296 1092.89 603.296Z" fill="#FFFFFF" fill-rule="evenodd"/><path d="M1352.73 343.453 1612.57 343.453 1612.57 603.296 1352.73 603.296Z" fill="#F2F2F2" fill-rule="evenodd"/><path d="M1612.57 343.453 1872.41 343.453 1872.41 603.296 1612.57 603.296Z" fill="#D9D9D9" fill-rule="evenodd"/><path d="M1872.41 343.453 2132.26 343.453 2132.26 603.296 1872.41 603.296Z" fill="#D9D9D9" fill-rule="evenodd"/><path d="M2132.26 343.453 2392.1 343.453 2392.1 603.296 2132.26 603.296Z" fill="#BFBFBF" fill-rule="evenodd"/><path d="M2392.1 343.453 2651.94 343.453 2651.94 603.296 2392.1 603.296Z" fill="#7F7F7F" fill-rule="evenodd"/><path d="M2651.94 343.453 2911.78 343.453 2911.78 603.296 2651.94 603.296Z" fill="#F2F2F2" fill-rule="evenodd"/><path d="M2911.78 343.453 3171.63 343.453 3171.63 603.296 2911.78 603.296Z" fill="#F2F2F2" fill-rule="evenodd"/><path d="M1092.89 603.296 1352.73 603.296 1352.73 863.138 1092.89 863.138Z" fill="#F2F2F2" fill-rule="evenodd"/><path d="M1352.73 603.296 1612.57 603.296 1612.57 863.138 1352.73 863.138Z" fill="#FFFFFF" fill-rule="evenodd"/><path d="M1612.57 603.296 1872.41 603.296 1872.41 863.138 1612.57 863.138Z" fill="#D9D9D9" fill-rule="evenodd"/><path d="M1872.41 603.296 2132.26 603.296 2132.26 863.138 1872.41 863.138Z" fill="#D9D9D9" fill-rule="evenodd"/><path d="M2132.26 603.296 2392.1 603.296 2392.1 863.138 2132.26 863.138Z" fill="#BFBFBF" fill-rule="evenodd"/><path d="M2392.1 603.296 2651.94 603.296 2651.94 863.138 2392.1 863.138Z" fill="#7F7F7F" fill-rule="evenodd"/><path d="M2651.94 603.296 2911.78 603.296 2911.78 863.138 2651.94 863.138Z" fill="#F2F2F2" fill-rule="evenodd"/><path d="M2911.78 603.296 3171.63 603.296 3171.63 863.138 2911.78 863.138Z" fill="#F2F2F2" fill-rule="evenodd"/><path d="M1092.89 863.138 1352.73 863.138 1352.73 1122.98 1092.89 1122.98Z" fill="#D9D9D9" fill-rule="evenodd"/><path d="M1352.73 863.138 1612.57 863.138 1612.57 1122.98 1352.73 1122.98Z" fill="#D9D9D9" fill-rule="evenodd"/><path d="M1612.57 863.138 1872.41 863.138 1872.41 1122.98 1612.57 1122.98Z" fill="#FFFFFF" fill-rule="evenodd"/><path d="M1872.41 863.138 2132.26 863.138 2132.26 1122.98 1872.41 1122.98Z" fill="#F2F2F2" fill-rule="evenodd"/><path d="M2132.26 863.138 2392.1 863.138 2392.1 1122.98 2132.26 1122.98Z" fill="#BFBFBF" fill-rule="evenodd"/><path d="M2392.1 863.138 2651.94 863.138 2651.94 1122.98 2392.1 1122.98Z" fill="#F2F2F2" fill-rule="evenodd"/><path d="M2651.94 863.138 2911.78 863.138 2911.78 1122.98 2651.94 1122.98Z" fill="#7F7F7F" fill-rule="evenodd"/><path d="M2911.78 863.138 3171.63 863.138 3171.63 1122.98 2911.78 1122.98Z" fill="#7F7F7F" fill-rule="evenodd"/><path d="M1092.89 1122.98 1352.73 1122.98 1352.73 1382.82 1092.89 1382.82Z" fill="#D9D9D9" fill-rule="evenodd"/><path d="M1352.73 1122.98 1612.57 1122.98 1612.57 1382.82 1352.73 1382.82Z" fill="#D9D9D9" fill-rule="evenodd"/><path d="M1612.57 1122.98 1872.41 1122.98 1872.41 1382.82 1612.57 1382.82Z" fill="#F2F2F2" fill-rule="evenodd"/><path d="M1872.41 1122.98 2132.26 1122.98 2132.26 1382.82 1872.41 1382.82Z" fill="#FFFFFF" fill-rule="evenodd"/><path d="M2132.26 1122.98 2392.1 1122.98 2392.1 1382.82 2132.26 1382.82Z" fill="#F2F2F2" fill-rule="evenodd"/><path d="M2392.1 1122.98 2651.94 1122.98 2651.94 1382.82 2392.1 1382.82Z" fill="#F2F2F2" fill-rule="evenodd"/><path d="M2651.94 1122.98 2911.78 1122.98 2911.78 1382.82 2651.94 1382.82Z" fill="#7F7F7F" fill-rule="evenodd"/><path d="M2911.78 1122.98 3171.63 1122.98 3171.63 1382.82 2911.78 1382.82Z" fill="#7F7F7F" fill-rule="evenodd"/><path d="M1092.89 1382.82 1352.73 1382.82 1352.73 1642.67 1092.89 1642.67Z" fill="#BFBFBF" fill-rule="evenodd"/><path d="M1352.73 1382.82 1612.57 1382.82 1612.57 1642.67 1352.73 1642.67Z" fill="#BFBFBF" fill-rule="evenodd"/><path d="M1612.57 1382.82 1872.41 1382.82 1872.41 1642.67 1612.57 1642.67Z" fill="#BFBFBF" fill-rule="evenodd"/><path d="M1872.41 1382.82 2132.26 1382.82 2132.26 1642.67 1872.41 1642.67Z" fill="#F2F2F2" fill-rule="evenodd"/><path d="M2132.26 1382.82 2392.1 1382.82 2392.1 1642.67 2132.26 1642.67Z" fill="#FFFFFF" fill-rule="evenodd"/><path d="M2392.1 1382.82 2651.94 1382.82 2651.94 1642.67 2392.1 1642.67Z" fill="#F2F2F2" fill-rule="evenodd"/><path d="M2651.94 1382.82 2911.78 1382.82 2911.78 1642.67 2651.94 1642.67Z" fill="#7F7F7F" fill-rule="evenodd"/><path d="M2911.78 1382.82 3171.63 1382.82 3171.63 1642.67 2911.78 1642.67Z" fill="#7F7F7F" fill-rule="evenodd"/><path d="M1092.89 1642.67 1352.73 1642.67 1352.73 1902.51 1092.89 1902.51Z" fill="#7F7F7F" fill-rule="evenodd"/><path d="M1352.73 1642.67 1612.57 1642.67 1612.57 1902.51 1352.73 1902.51Z" fill="#7F7F7F" fill-rule="evenodd"/><path d="M1612.57 1642.67 1872.41 1642.67 1872.41 1902.51 1612.57 1902.51Z" fill="#F2F2F2" fill-rule="evenodd"/><path d="M1872.41 1642.67 2132.26 1642.67 2132.26 1902.51 1872.41 1902.51Z" fill="#F2F2F2" fill-rule="evenodd"/><path d="M2132.26 1642.67 2392.1 1642.67 2392.1 1902.51 2132.26 1902.51Z" fill="#F2F2F2" fill-rule="evenodd"/><path d="M2392.1 1642.67 2651.94 1642.67 2651.94 1902.51 2392.1 1902.51Z" fill="#FFFFFF" fill-rule="evenodd"/><path d="M2651.94 1642.67 2911.78 1642.67 2911.78 1902.51 2651.94 1902.51Z" fill="#F2F2F2" fill-rule="evenodd"/><path d="M2911.78 1642.67 3171.63 1642.67 3171.63 1902.51 2911.78 1902.51Z" fill="#BFBFBF" fill-rule="evenodd"/><path d="M1092.89 1902.51 1352.73 1902.51 1352.73 2162.35 1092.89 2162.35Z" fill="#F2F2F2" fill-rule="evenodd"/><path d="M1352.73 1902.51 1612.57 1902.51 1612.57 2162.35 1352.73 2162.35Z" fill="#F2F2F2" fill-rule="evenodd"/><path d="M1612.57 1902.51 1872.41 1902.51 1872.41 2162.35 1612.57 2162.35Z" fill="#7F7F7F" fill-rule="evenodd"/><path d="M1872.41 1902.51 2132.26 1902.51 2132.26 2162.35 1872.41 2162.35Z" fill="#7F7F7F" fill-rule="evenodd"/><path d="M2132.26 1902.51 2392.1 1902.51 2392.1 2162.35 2132.26 2162.35Z" fill="#7F7F7F" fill-rule="evenodd"/><path d="M2392.1 1902.51 2651.94 1902.51 2651.94 2162.35 2392.1 2162.35Z" fill="#F2F2F2" fill-rule="evenodd"/><path d="M2651.94 1902.51 2911.78 1902.51 2911.78 2162.35 2651.94 2162.35Z" fill="#FFFFFF" fill-rule="evenodd"/><path d="M2911.78 1902.51 3171.63 1902.51 3171.63 2162.35 2911.78 2162.35Z" fill="#7F7F7F" fill-rule="evenodd"/><path d="M1092.89 2162.35 1352.73 2162.35 1352.73 2422.19 1092.89 2422.19Z" fill="#F2F2F2" fill-rule="evenodd"/><path d="M1352.73 2162.35 1612.57 2162.35 1612.57 2422.19 1352.73 2422.19Z" fill="#F2F2F2" fill-rule="evenodd"/><path d="M1612.57 2162.35 1872.41 2162.35 1872.41 2422.19 1612.57 2422.19Z" fill="#7F7F7F" fill-rule="evenodd"/><path d="M1872.41 2162.35 2132.26 2162.35 2132.26 2422.19 1872.41 2422.19Z" fill="#7F7F7F" fill-rule="evenodd"/><path d="M2132.26 2162.35 2392.1 2162.35 2392.1 2422.19 2132.26 2422.19Z" fill="#7F7F7F" fill-rule="evenodd"/><path d="M2392.1 2162.35 2651.94 2162.35 2651.94 2422.19 2392.1 2422.19Z" fill="#BFBFBF" fill-rule="evenodd"/><path d="M2651.94 2162.35 2911.78 2162.35 2911.78 2422.19 2651.94 2422.19Z" fill="#7F7F7F" fill-rule="evenodd"/><path d="M2911.78 2162.35 3171.63 2162.35 3171.63 2422.19 2911.78 2422.19Z" fill="#FFFFFF" fill-rule="evenodd"/><path d="M1352.73 341.162 1352.73 2424.49" stroke="#000000" stroke-width="4.58333" stroke-linejoin="round" stroke-miterlimit="10" fill="none" fill-rule="evenodd"/><path d="M1612.57 341.162 1612.57 2424.49" stroke="#000000" stroke-width="4.58333" stroke-linejoin="round" stroke-miterlimit="10" fill="none" fill-rule="evenodd"/><path d="M1872.41 341.162 1872.41 2424.49" stroke="#000000" stroke-width="4.58333" stroke-linejoin="round" stroke-miterlimit="10" fill="none" fill-rule="evenodd"/><path d="M2132.26 341.162 2132.26 2424.49" stroke="#000000" stroke-width="4.58333" stroke-linejoin="round" stroke-miterlimit="10" fill="none" fill-rule="evenodd"/><path d="M2392.1 341.162 2392.1 2424.49" stroke="#000000" stroke-width="4.58333" stroke-linejoin="round" stroke-miterlimit="10" fill="none" fill-rule="evenodd"/><path d="M2651.94 341.162 2651.94 2424.49" stroke="#000000" stroke-width="4.58333" stroke-linejoin="round" stroke-miterlimit="10" fill="none" fill-rule="evenodd"/><path d="M2911.78 341.162 2911.78 2424.49" stroke="#000000" stroke-width="4.58333" stroke-linejoin="round" stroke-miterlimit="10" fill="none" fill-rule="evenodd"/><path d="M1090.59 603.296 3173.92 603.296" stroke="#000000" stroke-width="4.58333" stroke-linejoin="round" stroke-miterlimit="10" fill="none" fill-rule="evenodd"/><path d="M1090.59 863.138 3173.92 863.138" stroke="#000000" stroke-width="4.58333" stroke-linejoin="round" stroke-miterlimit="10" fill="none" fill-rule="evenodd"/><path d="M1090.59 1122.98 3173.92 1122.98" stroke="#000000" stroke-width="4.58333" stroke-linejoin="round" stroke-miterlimit="10" fill="none" fill-rule="evenodd"/><path d="M1090.59 1382.82 3173.92 1382.82" stroke="#000000" stroke-width="4.58333" stroke-linejoin="round" stroke-miterlimit="10" fill="none" fill-rule="evenodd"/><path d="M1090.59 1642.67 3173.92 1642.67" stroke="#000000" stroke-width="4.58333" stroke-linejoin="round" stroke-miterlimit="10" fill="none" fill-rule="evenodd"/><path d="M1090.59 1902.51 3173.92 1902.51" stroke="#000000" stroke-width="4.58333" stroke-linejoin="round" stroke-miterlimit="10" fill="none" fill-rule="evenodd"/><path d="M1090.59 2162.35 3173.92 2162.35" stroke="#000000" stroke-width="4.58333" stroke-linejoin="round" stroke-miterlimit="10" fill="none" fill-rule="evenodd"/><path d="M1092.89 341.162 1092.89 2424.49" stroke="#000000" stroke-width="4.58333" stroke-linejoin="round" stroke-miterlimit="10" fill="none" fill-rule="evenodd"/><path d="M3171.63 341.162 3171.63 2424.49" stroke="#000000" stroke-width="4.58333" stroke-linejoin="round" stroke-miterlimit="10" fill="none" fill-rule="evenodd"/><path d="M1090.59 343.453 3173.92 343.453" stroke="#000000" stroke-width="4.58333" stroke-linejoin="round" stroke-miterlimit="10" fill="none" fill-rule="evenodd"/><path d="M1090.59 2422.19 3173.92 2422.19" stroke="#000000" stroke-width="4.58333" stroke-linejoin="round" stroke-miterlimit="10" fill="none" fill-rule="evenodd"/><path d="M1093.39 343.953 1353.39 603.953" stroke="#000000" stroke-width="4.58333" stroke-linejoin="round" stroke-miterlimit="10" fill="none" fill-rule="evenodd"/><path d="M1353.39 603.953 1613.39 863.953" stroke="#000000" stroke-width="4.58333" stroke-linejoin="round" stroke-miterlimit="10" fill="none" fill-rule="evenodd"/><path d="M1613.39 863.953 1873.39 1123.95" stroke="#000000" stroke-width="4.58333" stroke-linejoin="round" stroke-miterlimit="10" fill="none" fill-rule="evenodd"/><path d="M1873.39 1123.95 2132.39 1382.95" stroke="#000000" stroke-width="4.58333" stroke-linejoin="round" stroke-miterlimit="10" fill="none" fill-rule="evenodd"/><path d="M2132.39 1382.95 2392.39 1642.95" stroke="#000000" stroke-width="4.58333" stroke-linejoin="round" stroke-miterlimit="10" fill="none" fill-rule="evenodd"/><path d="M2392.39 1642.95 2652.39 1902.95" stroke="#000000" stroke-width="4.58333" stroke-linejoin="round" stroke-miterlimit="10" fill="none" fill-rule="evenodd"/><path d="M2652.39 1902.95 2912.39 2162.95" stroke="#000000" stroke-width="4.58333" stroke-linejoin="round" stroke-miterlimit="10" fill="none" fill-rule="evenodd"/><path d="M2912.39 2162.95 3172.39 2422.95" stroke="#000000" stroke-width="4.58333" stroke-linejoin="round" stroke-miterlimit="10" fill="none" fill-rule="evenodd"/><path d="M796.5 466.5C796.5 409.063 843.062 362.5 900.5 362.5 957.938 362.5 1004.5 409.063 1004.5 466.5 1004.5 523.938 957.938 570.5 900.5 570.5 843.062 570.5 796.5 523.938 796.5 466.5Z" stroke="#000000" stroke-width="4.58333" stroke-miterlimit="8" fill="none" fill-rule="evenodd"/><path d="M848.734 455.697C849.844 455.697 850.82 455.823 851.661 456.073 852.503 456.324 853.246 456.709 853.89 457.228 854.535 457.747 855.108 458.419 855.609 459.242 856.11 460.066 856.594 461.185 857.059 462.599 857.525 464.014 857.963 465.768 858.375 467.863 858.787 469.958 859.154 472.133 859.476 474.389L860.013 474.389C863.451 469.555 866.056 466.019 867.828 463.781 869.601 461.543 871.096 459.878 872.313 458.786 873.531 457.694 874.703 456.924 875.831 456.476 876.959 456.029 878.454 455.805 880.316 455.805 881.999 455.805 883.378 456.02 884.452 456.449L882.303 466.171 878.544 466.171C878.329 464.667 877.702 463.915 876.664 463.915 876.341 463.915 876.001 463.969 875.643 464.076 875.285 464.184 874.847 464.416 874.327 464.774 873.808 465.133 873.047 465.831 872.045 466.869 871.042 467.908 869.914 469.179 868.661 470.683 867.408 472.187 866.119 473.762 864.794 475.409L861.141 479.975C861.786 483.412 862.395 486.384 862.967 488.891 863.54 491.397 864.051 493.483 864.498 495.148 864.946 496.813 865.34 498.129 865.68 499.096 866.02 500.062 866.387 500.788 866.781 501.271 867.175 501.754 867.578 502.095 867.989 502.292 868.401 502.488 868.876 502.587 869.413 502.587 870.38 502.587 871.32 502.211 872.233 501.459 873.146 500.707 874.462 499.006 876.18 496.356L879.672 498.666C877.165 502.39 874.9 505.013 872.877 506.535 870.854 508.056 868.446 508.817 865.653 508.817 864.113 508.817 862.806 508.54 861.732 507.985 860.658 507.43 859.727 506.544 858.939 505.326 858.151 504.109 857.453 502.211 856.844 499.633 855.734 495.049 855.054 491.54 854.803 489.105L854.266 489.105C850.471 494.441 847.651 498.272 845.807 500.6 843.963 502.927 842.441 504.646 841.241 505.756 840.042 506.866 838.878 507.645 837.75 508.092 836.622 508.54 835.127 508.764 833.265 508.764 831.582 508.764 830.204 508.549 829.13 508.119L831.278 498.397 835.038 498.397C835.253 499.901 835.879 500.653 836.918 500.653 837.419 500.653 837.947 500.519 838.502 500.25 839.057 499.982 839.854 499.337 840.892 498.317 841.931 497.296 843.363 495.694 845.189 493.51 847.015 491.326 849.665 488.049 853.138 483.681 852.601 480.852 852.046 478.131 851.473 475.517 850.9 472.903 850.31 470.468 849.701 468.212 849.092 465.956 848.591 464.479 848.197 463.781 847.803 463.083 847.382 462.599 846.935 462.331 846.487 462.062 845.923 461.928 845.243 461.928 844.491 461.928 843.811 462.098 843.202 462.438 842.593 462.778 841.931 463.369 841.215 464.21 840.498 465.052 839.549 466.368 838.368 468.158L834.877 465.849C837.133 462.447 839.299 459.905 841.376 458.222 843.453 456.539 845.905 455.697 848.734 455.697Z" fill-rule="evenodd"/><text fill="#000000" fill-opacity="0" font-family="Arial,Arial_MSFontService,sans-serif" font-size="53.1201" x="829.13" y="502.177">ЁЭСе</text><path d="M908.702 480.104 911.085 480.104C911.033 481.536 910.994 482.819 910.968 483.951 910.942 485.084 910.922 486.185 910.909 487.252 910.896 488.32 910.89 489.375 910.89 490.416L910.89 520.104C910.89 520.911 910.916 521.608 910.968 522.194 911.02 522.78 911.104 523.274 911.222 523.678 911.339 524.082 911.495 524.427 911.69 524.713 911.886 525 912.114 525.247 912.374 525.455 912.686 525.768 913.103 526.009 913.624 526.178 914.145 526.347 914.809 526.491 915.616 526.608 916.423 526.725 917.393 526.816 918.526 526.881 919.659 526.946 921.02 526.992 922.608 527.018L922.608 530.416 891.632 530.416 891.632 527.018C893.168 526.966 894.47 526.907 895.538 526.842 896.606 526.777 897.517 526.686 898.272 526.569 899.028 526.451 899.633 526.321 900.089 526.178 900.545 526.035 900.942 525.859 901.28 525.651 901.645 525.416 901.957 525.162 902.218 524.889 902.478 524.616 902.686 524.271 902.843 523.854 902.999 523.437 903.123 522.929 903.214 522.33 903.305 521.731 903.351 520.989 903.351 520.104L903.351 492.096C903.351 491.08 903.155 490.364 902.765 489.948 902.374 489.531 901.814 489.323 901.085 489.323 900.278 489.323 899.08 489.739 897.491 490.573 895.903 491.406 893.845 492.643 891.319 494.284 890.981 493.685 890.668 493.086 890.382 492.487 890.095 491.888 889.796 491.276 889.483 490.651 892.713 488.88 895.909 487.116 899.073 485.358 902.237 483.6 905.447 481.849 908.702 480.104Z" fill-rule="evenodd"/><text fill="#000000" fill-opacity="0" font-family="Arial,Arial_MSFontService,sans-serif" font-size="50.3125" x="889.483" y="524.127">1</text><path d="M796.5 731.5C796.5 674.062 843.062 627.5 900.5 627.5 957.938 627.5 1004.5 674.062 1004.5 731.5 1004.5 788.938 957.938 835.5 900.5 835.5 843.062 835.5 796.5 788.938 796.5 731.5Z" stroke="#000000" stroke-width="4.58333" stroke-miterlimit="8" fill="none" fill-rule="evenodd"/><path d="M847.462 720.641C848.572 720.641 849.548 720.767 850.389 721.017 851.231 721.268 851.974 721.653 852.618 722.172 853.263 722.691 853.836 723.363 854.337 724.186 854.838 725.01 855.322 726.129 855.787 727.543 856.253 728.958 856.691 730.712 857.103 732.807 857.515 734.902 857.882 737.077 858.204 739.333L858.741 739.333C862.179 734.499 864.784 730.963 866.556 728.725 868.329 726.487 869.824 724.822 871.041 723.73 872.259 722.638 873.431 721.868 874.559 721.42 875.687 720.973 877.182 720.749 879.044 720.749 880.727 720.749 882.106 720.964 883.18 721.393L881.031 731.115 877.272 731.115C877.057 729.611 876.43 728.859 875.392 728.859 875.07 728.859 874.729 728.913 874.371 729.02 874.013 729.128 873.575 729.36 873.055 729.719 872.536 730.077 871.775 730.775 870.773 731.813 869.77 732.852 868.642 734.123 867.389 735.627 866.136 737.131 864.847 738.706 863.522 740.353L859.869 744.919C860.514 748.356 861.123 751.328 861.695 753.835 862.268 756.341 862.779 758.427 863.226 760.092 863.674 761.757 864.068 763.073 864.408 764.04 864.748 765.007 865.115 765.732 865.509 766.215 865.903 766.698 866.306 767.039 866.717 767.236 867.129 767.433 867.604 767.531 868.141 767.531 869.108 767.531 870.048 767.155 870.961 766.403 871.874 765.651 873.19 763.95 874.908 761.301L878.4 763.61C875.893 767.334 873.628 769.957 871.605 771.479 869.582 773.001 867.174 773.761 864.381 773.761 862.841 773.761 861.534 773.484 860.46 772.929 859.386 772.374 858.455 771.488 857.667 770.27 856.879 769.053 856.181 767.155 855.572 764.577 854.462 759.994 853.782 756.484 853.531 754.05L852.994 754.05C849.199 759.385 846.379 763.216 844.535 765.544 842.691 767.871 841.169 769.59 839.969 770.7 838.77 771.81 837.606 772.589 836.478 773.036 835.35 773.484 833.855 773.708 831.993 773.708 830.31 773.708 828.932 773.493 827.858 773.063L830.006 763.342 833.766 763.342C833.981 764.845 834.607 765.597 835.646 765.597 836.147 765.597 836.675 765.463 837.23 765.195 837.785 764.926 838.582 764.281 839.62 763.261 840.659 762.24 842.091 760.638 843.917 758.454 845.743 756.27 848.393 752.993 851.866 748.625 851.329 745.796 850.774 743.075 850.201 740.461 849.628 737.847 849.038 735.412 848.429 733.156 847.82 730.9 847.319 729.423 846.925 728.725 846.531 728.027 846.11 727.543 845.663 727.275 845.215 727.006 844.651 726.872 843.971 726.872 843.219 726.872 842.539 727.042 841.93 727.382 841.321 727.722 840.659 728.313 839.943 729.155 839.226 729.996 838.278 731.312 837.096 733.102L833.605 730.793C835.861 727.391 838.027 724.849 840.104 723.166 842.181 721.483 844.633 720.641 847.462 720.641Z" fill-rule="evenodd"/><text fill="#000000" fill-opacity="0" font-family="Arial,Arial_MSFontService,sans-serif" font-size="53.1201" x="827.858" y="767.121">ЁЭСе</text><path d="M906.927 744.774C909.635 744.774 911.947 745.08 913.861 745.692 915.775 746.304 917.331 747.131 918.529 748.173 919.727 749.215 920.592 750.465 921.126 751.923 921.66 753.381 921.927 754.957 921.927 756.649 921.927 757.665 921.855 758.609 921.712 759.482 921.569 760.354 921.322 761.213 920.97 762.06 920.618 762.906 920.156 763.759 919.583 764.618 919.01 765.478 918.294 766.389 917.435 767.353 916.784 768.186 915.937 769.149 914.896 770.243 913.854 771.337 912.715 772.509 911.478 773.759 910.241 775.009 908.945 776.311 907.591 777.665 906.237 779.019 904.922 780.36 903.646 781.689 902.37 783.017 901.198 784.306 900.13 785.556 899.062 786.806 898.19 787.952 897.513 788.993L911.966 788.993C913.19 788.993 914.167 788.948 914.896 788.857 915.625 788.765 916.23 788.564 916.712 788.251 917.194 787.939 917.604 787.463 917.943 786.825 918.281 786.187 918.672 785.308 919.115 784.189L922.747 784.189C922.617 786.037 922.493 787.899 922.376 789.774 922.259 791.649 922.135 793.511 922.005 795.36L888.919 795.36 888.919 793.329C889.544 791.923 890.273 790.536 891.107 789.169 891.94 787.802 892.878 786.415 893.919 785.009 894.961 783.603 896.146 782.151 897.474 780.653 898.802 779.156 900.273 777.6 901.888 775.985 904.336 773.537 906.328 771.448 907.865 769.716 909.401 767.984 910.612 766.441 911.497 765.087 912.383 763.733 912.988 762.483 913.314 761.337 913.639 760.191 913.802 758.967 913.802 757.665 913.802 756.337 913.613 755.113 913.236 753.993 912.858 752.873 912.318 751.923 911.615 751.142 910.911 750.36 910.019 749.748 908.939 749.306 907.858 748.863 906.615 748.642 905.208 748.642 902.786 748.642 900.755 749.299 899.115 750.614 897.474 751.929 896.198 753.837 895.286 756.337L890.169 756.337 890.169 748.72C893.503 747.34 896.569 746.337 899.368 745.712 902.168 745.087 904.687 744.774 906.927 744.774Z" fill-rule="evenodd"/><text fill="#000000" fill-opacity="0" font-family="Arial,Arial_MSFontService,sans-serif" font-size="50.5859" x="888.919" y="789.037">2</text><path d="M796.5 1246.5C796.5 1189.06 843.062 1142.5 900.5 1142.5 957.938 1142.5 1004.5 1189.06 1004.5 1246.5 1004.5 1303.94 957.938 1350.5 900.5 1350.5 843.062 1350.5 796.5 1303.94 796.5 1246.5Z" stroke="#000000" stroke-width="4.58333" stroke-miterlimit="8" fill="none" fill-rule="evenodd"/><path d="M845.136 1235.88C846.246 1235.88 847.222 1236 848.063 1236.25 848.905 1236.5 849.648 1236.89 850.292 1237.41 850.937 1237.93 851.51 1238.6 852.011 1239.42 852.512 1240.25 852.996 1241.36 853.461 1242.78 853.927 1244.19 854.365 1245.95 854.777 1248.04 855.189 1250.14 855.556 1252.31 855.878 1254.57L856.415 1254.57C859.853 1249.73 862.458 1246.2 864.23 1243.96 866.003 1241.72 867.498 1240.06 868.715 1238.97 869.933 1237.87 871.105 1237.1 872.233 1236.66 873.361 1236.21 874.856 1235.98 876.718 1235.98 878.401 1235.98 879.78 1236.2 880.854 1236.63L878.706 1246.35 874.946 1246.35C874.731 1244.85 874.104 1244.09 873.066 1244.09 872.744 1244.09 872.403 1244.15 872.045 1244.26 871.687 1244.36 871.249 1244.6 870.729 1244.95 870.21 1245.31 869.449 1246.01 868.447 1247.05 867.444 1248.09 866.316 1249.36 865.063 1250.86 863.81 1252.37 862.521 1253.94 861.196 1255.59L857.543 1260.15C858.188 1263.59 858.797 1266.56 859.37 1269.07 859.943 1271.58 860.453 1273.66 860.9 1275.33 861.348 1276.99 861.742 1278.31 862.082 1279.28 862.422 1280.24 862.789 1280.97 863.183 1281.45 863.577 1281.93 863.98 1282.27 864.392 1282.47 864.803 1282.67 865.278 1282.77 865.815 1282.77 866.782 1282.77 867.722 1282.39 868.635 1281.64 869.548 1280.89 870.864 1279.19 872.582 1276.54L876.074 1278.85C873.567 1282.57 871.302 1285.19 869.279 1286.71 867.256 1288.24 864.848 1289 862.055 1289 860.515 1289 859.208 1288.72 858.134 1288.16 857.06 1287.61 856.129 1286.72 855.341 1285.51 854.553 1284.29 853.855 1282.39 853.247 1279.81 852.136 1275.23 851.456 1271.72 851.206 1269.29L850.668 1269.29C846.873 1274.62 844.053 1278.45 842.209 1280.78 840.365 1283.11 838.843 1284.83 837.643 1285.94 836.444 1287.05 835.28 1287.82 834.152 1288.27 833.024 1288.72 831.529 1288.94 829.667 1288.94 827.984 1288.94 826.606 1288.73 825.532 1288.3L827.68 1278.58 831.44 1278.58C831.655 1280.08 832.281 1280.83 833.32 1280.83 833.821 1280.83 834.349 1280.7 834.904 1280.43 835.459 1280.16 836.256 1279.52 837.294 1278.5 838.333 1277.48 839.765 1275.87 841.591 1273.69 843.417 1271.51 846.067 1268.23 849.54 1263.86 849.003 1261.03 848.448 1258.31 847.875 1255.7 847.302 1253.08 846.712 1250.65 846.103 1248.39 845.494 1246.14 844.993 1244.66 844.599 1243.96 844.205 1243.26 843.784 1242.78 843.337 1242.51 842.889 1242.24 842.325 1242.11 841.645 1242.11 840.893 1242.11 840.213 1242.28 839.604 1242.62 838.995 1242.96 838.333 1243.55 837.617 1244.39 836.901 1245.23 835.952 1246.55 834.77 1248.34L831.279 1246.03C833.535 1242.63 835.701 1240.08 837.778 1238.4 839.855 1236.72 842.307 1235.88 845.136 1235.88Z" fill-rule="evenodd"/><text fill="#000000" fill-opacity="0" font-family="Arial,Arial_MSFontService,sans-serif" font-size="53.1201" x="825.532" y="1282.36">ЁЭСе</text><path d="M902.375 1257.28 905.187 1257.28 898.312 1287.67 899.406 1287.67C900.395 1287.67 901.463 1287.46 902.609 1287.04 903.755 1286.62 904.894 1286.08 906.027 1285.42 907.16 1284.76 908.247 1284.01 909.289 1283.17 910.33 1282.34 911.248 1281.5 912.042 1280.65 912.837 1279.81 913.468 1279.01 913.937 1278.25 914.406 1277.5 914.64 1276.86 914.64 1276.34 914.64 1275.71 914.432 1275.21 914.015 1274.81 913.598 1274.42 912.843 1274.16 911.75 1274.03L912.218 1271.53 926.281 1271.53 927.257 1273.96C925.617 1275.36 924.041 1276.66 922.531 1277.86 921.02 1279.06 919.542 1280.21 918.097 1281.32 916.652 1282.43 915.207 1283.51 913.761 1284.58 912.316 1285.65 910.838 1286.75 909.328 1287.9 909.953 1289.88 910.591 1291.89 911.242 1293.94 911.893 1295.98 912.544 1298 913.195 1300.01 913.507 1301.08 913.8 1302 914.074 1302.76 914.347 1303.53 914.64 1304.16 914.953 1304.64 915.265 1305.12 915.604 1305.48 915.968 1305.71 916.333 1305.95 916.776 1306.06 917.296 1306.06 917.661 1306.06 918.039 1306 918.429 1305.87 918.82 1305.74 919.256 1305.5 919.738 1305.17 920.22 1304.83 920.766 1304.37 921.378 1303.78 921.99 1303.19 922.687 1302.46 923.468 1301.57L926.125 1304.11C924.901 1305.36 923.761 1306.44 922.707 1307.35 921.652 1308.27 920.649 1309.01 919.699 1309.6 918.748 1310.19 917.83 1310.62 916.945 1310.89 916.059 1311.16 915.161 1311.3 914.25 1311.3 912.609 1311.3 911.287 1310.89 910.285 1310.07 909.282 1309.25 908.429 1308.08 907.726 1306.55 907.023 1305.03 906.378 1303.19 905.792 1301.03 905.207 1298.86 904.523 1296.46 903.742 1293.8 903.559 1293.17 903.384 1292.67 903.214 1292.3 903.045 1291.92 902.83 1291.63 902.57 1291.44 902.309 1291.24 901.984 1291.12 901.593 1291.06 901.203 1291.01 900.708 1290.99 900.109 1290.99L897.609 1290.99 893.312 1310.6 885.812 1310.6 895.265 1268.64C895.578 1267.26 895.799 1266.18 895.929 1265.38 896.059 1264.59 896.125 1263.88 896.125 1263.25 896.125 1262.76 896.04 1262.33 895.871 1261.96 895.701 1261.6 895.421 1261.31 895.031 1261.08 894.64 1260.86 894.119 1260.7 893.468 1260.6 892.817 1260.49 892.01 1260.43 891.046 1260.4L891.632 1257.74Z" fill-rule="evenodd"/><text fill="#000000" fill-opacity="0" font-family="Arial,Arial_MSFontService,sans-serif" font-size="54.0234" x="885.812" y="1304.55">ЁЭСШ</text><path d="M796.5 2299.5C796.5 2242.06 843.062 2195.5 900.5 2195.5 957.938 2195.5 1004.5 2242.06 1004.5 2299.5 1004.5 2356.94 957.938 2403.5 900.5 2403.5 843.062 2403.5 796.5 2356.94 796.5 2299.5Z" stroke="#000000" stroke-width="4.58333" stroke-miterlimit="8" fill="none" fill-rule="evenodd"/><path d="M843.91 2289C845.02 2289 845.996 2289.13 846.837 2289.38 847.679 2289.63 848.422 2290.02 849.066 2290.54 849.711 2291.05 850.284 2291.73 850.785 2292.55 851.286 2293.37 851.77 2294.49 852.235 2295.91 852.701 2297.32 853.139 2299.08 853.551 2301.17 853.963 2303.27 854.33 2305.44 854.652 2307.7L855.189 2307.7C858.627 2302.86 861.232 2299.33 863.004 2297.09 864.777 2294.85 866.272 2293.19 867.489 2292.09 868.707 2291 869.879 2290.23 871.007 2289.78 872.135 2289.34 873.63 2289.11 875.492 2289.11 877.175 2289.11 878.554 2289.33 879.628 2289.76L877.479 2299.48 873.72 2299.48C873.505 2297.97 872.878 2297.22 871.84 2297.22 871.517 2297.22 871.177 2297.28 870.819 2297.38 870.461 2297.49 870.023 2297.72 869.503 2298.08 868.984 2298.44 868.223 2299.14 867.221 2300.18 866.218 2301.22 865.09 2302.49 863.837 2303.99 862.584 2305.49 861.294 2307.07 859.97 2308.72L856.317 2313.28C856.962 2316.72 857.57 2319.69 858.143 2322.2 858.716 2324.7 859.227 2326.79 859.674 2328.46 860.122 2330.12 860.516 2331.44 860.856 2332.4 861.196 2333.37 861.563 2334.1 861.957 2334.58 862.351 2335.06 862.754 2335.4 863.165 2335.6 863.577 2335.8 864.052 2335.89 864.589 2335.89 865.556 2335.89 866.495 2335.52 867.409 2334.77 868.322 2334.01 869.638 2332.31 871.356 2329.66L874.848 2331.97C872.341 2335.7 870.076 2338.32 868.053 2339.84 866.03 2341.36 863.622 2342.12 860.829 2342.12 859.289 2342.12 857.982 2341.85 856.908 2341.29 855.834 2340.74 854.903 2339.85 854.115 2338.63 853.327 2337.42 852.629 2335.52 852.02 2332.94 850.91 2328.36 850.23 2324.85 849.979 2322.41L849.442 2322.41C845.647 2327.75 842.827 2331.58 840.983 2333.91 839.139 2336.23 837.617 2337.95 836.417 2339.06 835.218 2340.17 834.054 2340.95 832.926 2341.4 831.798 2341.85 830.303 2342.07 828.441 2342.07 826.758 2342.07 825.38 2341.86 824.306 2341.43L826.454 2331.71 830.214 2331.71C830.429 2333.21 831.055 2333.96 832.094 2333.96 832.595 2333.96 833.123 2333.83 833.678 2333.56 834.233 2333.29 835.03 2332.65 836.068 2331.62 837.107 2330.6 838.539 2329 840.365 2326.82 842.191 2324.63 844.841 2321.36 848.314 2316.99 847.777 2314.16 847.222 2311.44 846.649 2308.82 846.076 2306.21 845.486 2303.78 844.877 2301.52 844.268 2299.26 843.767 2297.79 843.373 2297.09 842.979 2296.39 842.558 2295.91 842.111 2295.64 841.663 2295.37 841.099 2295.24 840.419 2295.24 839.667 2295.24 838.987 2295.41 838.378 2295.75 837.769 2296.09 837.107 2296.68 836.391 2297.52 835.674 2298.36 834.725 2299.68 833.544 2301.47L830.053 2299.16C832.308 2295.75 834.475 2293.21 836.552 2291.53 838.628 2289.85 841.081 2289 843.91 2289Z" fill-rule="evenodd"/><text fill="#000000" fill-opacity="0" font-family="Arial,Arial_MSFontService,sans-serif" font-size="53.1201" x="824.306" y="2335.48">ЁЭСе</text><path d="M894.273 2323.84C896.2 2323.84 897.691 2324.47 898.746 2325.74 899.801 2327 900.328 2328.66 900.328 2330.72 900.328 2331.24 900.282 2331.78 900.191 2332.36 900.1 2332.93 899.937 2333.48 899.703 2334L900.25 2334.19C902.776 2330.73 905.269 2328.14 907.73 2326.42 910.191 2324.7 912.737 2323.84 915.367 2323.84 918.128 2323.84 920.191 2324.58 921.559 2326.07 922.926 2327.55 923.609 2329.64 923.609 2332.32 923.609 2333.12 923.492 2334.24 923.258 2335.68 923.023 2337.11 922.724 2338.67 922.359 2340.36 921.995 2342.06 921.604 2343.8 921.187 2345.58 920.771 2347.36 920.38 2349.01 920.016 2350.52 919.651 2352.03 919.352 2353.32 919.117 2354.39 918.883 2355.46 918.766 2356.12 918.766 2356.38 918.766 2357.37 918.948 2358.09 919.312 2358.53 919.677 2358.97 920.263 2359.19 921.07 2359.19 921.565 2359.19 922.053 2359.1 922.535 2358.92 923.017 2358.74 923.518 2358.45 924.039 2358.06 924.56 2357.67 925.133 2357.17 925.758 2356.56 926.383 2355.94 927.086 2355.21 927.867 2354.35L930.562 2356.93C929.286 2358.23 928.115 2359.35 927.047 2360.29 925.979 2361.22 924.944 2362 923.941 2362.61 922.939 2363.22 921.943 2363.68 920.953 2363.98 919.964 2364.28 918.909 2364.43 917.789 2364.43 916.852 2364.43 915.986 2364.24 915.191 2363.88 914.397 2363.52 913.714 2363.01 913.141 2362.38 912.568 2361.74 912.125 2360.98 911.812 2360.11 911.5 2359.24 911.344 2358.28 911.344 2357.24 911.344 2356.2 911.454 2354.98 911.676 2353.59 911.897 2352.19 912.229 2350.66 912.672 2349 913.141 2347.3 913.577 2345.68 913.98 2344.13 914.384 2342.58 914.736 2341.15 915.035 2339.84 915.335 2338.52 915.569 2337.35 915.738 2336.32 915.907 2335.29 915.992 2334.44 915.992 2333.76 915.992 2332.15 915.686 2330.96 915.074 2330.21 914.462 2329.45 913.479 2329.08 912.125 2329.08 911.344 2329.08 910.504 2329.28 909.605 2329.68 908.707 2330.08 907.802 2330.64 906.891 2331.36 905.979 2332.08 905.087 2332.92 904.215 2333.9 903.342 2334.88 902.542 2335.92 901.812 2337.02 901.083 2338.13 900.439 2339.29 899.879 2340.5 899.319 2341.71 898.909 2342.92 898.648 2344.11L894.273 2363.72 886.617 2363.72 892.477 2338.26C892.815 2336.9 893.062 2335.69 893.219 2334.62 893.375 2333.55 893.453 2332.68 893.453 2332.01 893.453 2330.1 892.685 2329.15 891.148 2329.15 890.68 2329.15 890.204 2329.25 889.723 2329.45 889.241 2329.64 888.733 2329.93 888.199 2330.33 887.665 2330.72 887.086 2331.21 886.461 2331.81 885.836 2332.41 885.133 2333.11 884.352 2333.92L881.656 2331.38C882.958 2330.05 884.15 2328.91 885.23 2327.96 886.311 2327.01 887.34 2326.23 888.316 2325.62 889.293 2325.01 890.263 2324.56 891.227 2324.27 892.19 2323.98 893.206 2323.84 894.273 2323.84Z" fill-rule="evenodd"/><text fill="#000000" fill-opacity="0" font-family="Arial,Arial_MSFontService,sans-serif" font-size="40.5859" x="881.656" y="2359.35">ЁЭСЫ</text><path d="M796.5 1769.5C796.5 1712.06 843.062 1665.5 900.5 1665.5 957.938 1665.5 1004.5 1712.06 1004.5 1769.5 1004.5 1826.94 957.938 1873.5 900.5 1873.5 843.062 1873.5 796.5 1826.94 796.5 1769.5Z" stroke="#000000" stroke-width="4.58333" stroke-miterlimit="8" fill="none" fill-rule="evenodd"/><path d="M855.254 1759.12C856.364 1759.12 857.34 1759.24 858.181 1759.49 859.023 1759.74 859.766 1760.13 860.41 1760.65 861.055 1761.17 861.628 1761.84 862.129 1762.66 862.63 1763.49 863.113 1764.6 863.579 1766.02 864.044 1767.43 864.483 1769.19 864.895 1771.28 865.307 1773.38 865.674 1775.55 865.996 1777.81L866.533 1777.81C869.971 1772.97 872.576 1769.44 874.348 1767.2 876.12 1764.96 877.615 1763.3 878.833 1762.21 880.05 1761.11 881.223 1760.34 882.351 1759.9 883.479 1759.45 884.974 1759.22 886.836 1759.22 888.519 1759.22 889.897 1759.44 890.972 1759.87L888.823 1769.59 885.063 1769.59C884.849 1768.09 884.222 1767.33 883.183 1767.33 882.861 1767.33 882.521 1767.39 882.163 1767.5 881.805 1767.6 881.366 1767.84 880.847 1768.19 880.328 1768.55 879.567 1769.25 878.564 1770.29 877.562 1771.33 876.434 1772.6 875.181 1774.1 873.927 1775.61 872.638 1777.18 871.313 1778.83L867.661 1783.39C868.306 1786.83 868.914 1789.8 869.487 1792.31 870.06 1794.82 870.57 1796.9 871.018 1798.57 871.466 1800.23 871.859 1801.55 872.2 1802.52 872.54 1803.48 872.907 1804.21 873.301 1804.69 873.695 1805.17 874.097 1805.51 874.509 1805.71 874.921 1805.91 875.395 1806.01 875.932 1806.01 876.899 1806.01 877.839 1805.63 878.752 1804.88 879.665 1804.13 880.981 1802.43 882.7 1799.78L886.191 1802.09C883.685 1805.81 881.42 1808.43 879.397 1809.95 877.374 1811.48 874.966 1812.24 872.173 1812.24 870.633 1812.24 869.326 1811.96 868.252 1811.4 867.178 1810.85 866.247 1809.96 865.459 1808.75 864.671 1807.53 863.973 1805.63 863.364 1803.05 862.254 1798.47 861.574 1794.96 861.323 1792.52L860.786 1792.52C856.99 1797.86 854.171 1801.69 852.327 1804.02 850.482 1806.35 848.961 1808.07 847.761 1809.18 846.562 1810.29 845.398 1811.06 844.27 1811.51 843.142 1811.96 841.647 1812.18 839.785 1812.18 838.102 1812.18 836.724 1811.97 835.649 1811.54L837.798 1801.82 841.557 1801.82C841.772 1803.32 842.399 1804.07 843.437 1804.07 843.939 1804.07 844.467 1803.94 845.022 1803.67 845.577 1803.4 846.374 1802.76 847.412 1801.74 848.45 1800.72 849.883 1799.11 851.709 1796.93 853.535 1794.74 856.185 1791.47 859.658 1787.1 859.121 1784.27 858.566 1781.55 857.993 1778.94 857.42 1776.32 856.829 1773.89 856.221 1771.63 855.612 1769.38 855.111 1767.9 854.717 1767.2 854.323 1766.5 853.902 1766.02 853.454 1765.75 853.007 1765.48 852.443 1765.35 851.763 1765.35 851.011 1765.35 850.33 1765.52 849.722 1765.86 849.113 1766.2 848.45 1766.79 847.734 1767.63 847.018 1768.47 846.069 1769.79 844.888 1771.58L841.396 1769.27C843.652 1765.87 845.819 1763.32 847.895 1761.64 849.972 1759.96 852.425 1759.12 855.254 1759.12Z" fill-rule="evenodd"/><text fill="#000000" fill-opacity="0" font-family="Arial,Arial_MSFontService,sans-serif" font-size="53.1201" x="835.649" y="1805.6">ЁЭСе</text><path d="M910.148 1794.34 912.062 1794.34 906.281 1820.36C905.917 1821.9 905.663 1823.12 905.519 1824.03 905.376 1824.94 905.305 1825.76 905.305 1826.49 905.305 1827.48 905.506 1828.2 905.91 1828.64 906.314 1829.08 906.919 1829.3 907.727 1829.3 908.195 1829.3 908.664 1829.21 909.133 1829.03 909.602 1828.85 910.103 1828.56 910.637 1828.17 911.171 1827.78 911.756 1827.28 912.394 1826.67 913.032 1826.06 913.742 1825.32 914.523 1824.46L917.18 1827.04C915.825 1828.42 914.595 1829.58 913.488 1830.54 912.381 1831.49 911.333 1832.26 910.344 1832.86 909.354 1833.46 908.384 1833.89 907.434 1834.15 906.483 1834.41 905.474 1834.54 904.406 1834.54 903.417 1834.54 902.525 1834.36 901.73 1833.99 900.936 1833.63 900.253 1833.13 899.68 1832.49 899.107 1831.85 898.664 1831.09 898.352 1830.2 898.039 1829.32 897.883 1828.34 897.883 1827.27 897.883 1826.41 897.987 1825.35 898.195 1824.07 898.404 1822.79 898.671 1821.41 898.996 1819.91 899.322 1818.41 899.68 1816.84 900.07 1815.2 900.461 1813.56 900.845 1811.93 901.223 1810.32 901.6 1808.71 901.939 1807.15 902.238 1805.65 902.538 1804.15 902.753 1802.79 902.883 1801.57 902.935 1801.36 902.961 1801.16 902.961 1800.96 902.961 1800.77 902.961 1800.59 902.961 1800.44 902.909 1799.42 902.551 1798.68 901.887 1798.21 901.223 1797.74 900.044 1797.48 898.352 1797.43L898.82 1794.77ZM907.883 1778.6 915.695 1778.6 913.781 1787 906.047 1787Z" fill-rule="evenodd"/><text fill="#000000" fill-opacity="0" font-family="Arial,Arial_MSFontService,sans-serif" font-size="55.9375" x="897.883" y="1827.55">ЁЭСЦ</text><path d="M884.976 977.173 884.976 968.986 894.378 968.986 894.378 977.173ZM884.976 997.031 884.976 988.844 894.378 988.844 894.378 997.031ZM884.976 1016.89 884.976 1008.7 894.378 1008.7 894.378 1016.89Z" fill-rule="evenodd"/><text fill="#000000" fill-opacity="0" font-family="Arial,Arial_MSFontService,sans-serif" font-size="47.9033" x="884.976" y="1010.9">тАж</text><path d="M884.976 1490.39 884.976 1482.2 894.378 1482.2 894.378 1490.39ZM884.976 1510.24 884.976 1502.06 894.378 1502.06 894.378 1510.24ZM884.976 1530.1 884.976 1521.92 894.378 1521.92 894.378 1530.1Z" fill-rule="evenodd"/><text fill="#000000" fill-opacity="0" font-family="Arial,Arial_MSFontService,sans-serif" font-size="47.9033" x="884.976" y="1524.12">тАж</text><path d="M895.532 2018.55 895.532 2010.37 904.934 2010.37 904.934 2018.55ZM895.532 2038.41 895.532 2030.22 904.934 2030.22 904.934 2038.41ZM895.532 2058.27 895.532 2050.08 904.934 2050.08 904.934 2058.27Z" fill-rule="evenodd"/><text fill="#000000" fill-opacity="0" font-family="Arial,Arial_MSFontService,sans-serif" font-size="47.9033" x="895.532" y="2052.28">тАж</text><path d="M1132.5 157.5C1132.5 100.062 1179.06 53.5001 1236.5 53.5001 1293.94 53.5001 1340.5 100.062 1340.5 157.5 1340.5 214.938 1293.94 261.5 1236.5 261.5 1179.06 261.5 1132.5 214.938 1132.5 157.5Z" stroke="#000000" stroke-width="4.58333" stroke-miterlimit="8" fill="none" fill-rule="evenodd"/><path d="M1184.48 146.993C1185.59 146.993 1186.57 147.118 1187.41 147.369 1188.25 147.62 1188.99 148.005 1189.64 148.524 1190.28 149.043 1190.85 149.715 1191.36 150.538 1191.86 151.362 1192.34 152.481 1192.81 153.895 1193.27 155.309 1193.71 157.064 1194.12 159.159 1194.53 161.253 1194.9 163.429 1195.22 165.685L1195.76 165.685C1199.2 160.851 1201.8 157.315 1203.57 155.077 1205.35 152.839 1206.84 151.174 1208.06 150.082 1209.28 148.989 1210.45 148.22 1211.58 147.772 1212.71 147.324 1214.2 147.101 1216.06 147.101 1217.75 147.101 1219.12 147.315 1220.2 147.745L1218.05 157.467 1214.29 157.467C1214.07 155.963 1213.45 155.211 1212.41 155.211 1212.09 155.211 1211.75 155.265 1211.39 155.372 1211.03 155.479 1210.59 155.712 1210.07 156.07 1209.55 156.428 1208.79 157.127 1207.79 158.165 1206.79 159.203 1205.66 160.475 1204.41 161.979 1203.15 163.482 1201.86 165.058 1200.54 166.705L1196.89 171.271C1197.53 174.708 1198.14 177.68 1198.71 180.187 1199.29 182.693 1199.8 184.779 1200.24 186.444 1200.69 188.109 1201.09 189.425 1201.43 190.392 1201.77 191.358 1202.13 192.083 1202.53 192.567 1202.92 193.05 1203.32 193.39 1203.74 193.587 1204.15 193.784 1204.62 193.883 1205.16 193.883 1206.13 193.883 1207.07 193.507 1207.98 192.755 1208.89 192.003 1210.21 190.302 1211.93 187.652L1215.42 189.962C1212.91 193.686 1210.65 196.309 1208.62 197.831 1206.6 199.352 1204.19 200.113 1201.4 200.113 1199.86 200.113 1198.55 199.836 1197.48 199.281 1196.4 198.726 1195.47 197.84 1194.69 196.622 1193.9 195.405 1193.2 193.507 1192.59 190.929 1191.48 186.345 1190.8 182.836 1190.55 180.401L1190.01 180.401C1186.22 185.737 1183.4 189.568 1181.55 191.896 1179.71 194.223 1178.19 195.942 1176.99 197.052 1175.79 198.162 1174.62 198.941 1173.5 199.388 1172.37 199.836 1170.87 200.06 1169.01 200.06 1167.33 200.06 1165.95 199.845 1164.88 199.415L1167.02 189.693 1170.78 189.693C1171 191.197 1171.63 191.949 1172.66 191.949 1173.17 191.949 1173.69 191.815 1174.25 191.546 1174.8 191.278 1175.6 190.633 1176.64 189.613 1177.68 188.592 1179.11 186.99 1180.94 184.806 1182.76 182.621 1185.41 179.345 1188.88 174.977 1188.35 172.148 1187.79 169.426 1187.22 166.812 1186.65 164.199 1186.06 161.764 1185.45 159.508 1184.84 157.252 1184.34 155.775 1183.94 155.077 1183.55 154.378 1183.13 153.895 1182.68 153.626 1182.23 153.358 1181.67 153.224 1180.99 153.224 1180.24 153.224 1179.56 153.394 1178.95 153.734 1178.34 154.074 1177.68 154.665 1176.96 155.506 1176.24 156.348 1175.3 157.664 1174.11 159.454L1170.62 157.145C1172.88 153.743 1175.05 151.201 1177.12 149.518 1179.2 147.835 1181.65 146.993 1184.48 146.993Z" fill-rule="evenodd"/><text fill="#000000" fill-opacity="0" font-family="Arial,Arial_MSFontService,sans-serif" font-size="53.1201" x="1164.88" y="193.473">ЁЭСе</text><path d="M1244.45 171.4 1246.83 171.4C1246.78 172.832 1246.74 174.115 1246.71 175.247 1246.69 176.38 1246.67 177.48 1246.66 178.548 1246.64 179.616 1246.64 180.671 1246.64 181.712L1246.64 211.4C1246.64 212.207 1246.66 212.904 1246.71 213.49 1246.77 214.076 1246.85 214.57 1246.97 214.974 1247.08 215.378 1247.24 215.723 1247.44 216.009 1247.63 216.296 1247.86 216.543 1248.12 216.751 1248.43 217.064 1248.85 217.305 1249.37 217.474 1249.89 217.643 1250.56 217.786 1251.36 217.904 1252.17 218.021 1253.14 218.112 1254.27 218.177 1255.41 218.242 1256.77 218.288 1258.35 218.314L1258.35 221.712 1227.38 221.712 1227.38 218.314C1228.91 218.262 1230.22 218.203 1231.28 218.138 1232.35 218.073 1233.26 217.982 1234.02 217.865 1234.77 217.747 1235.38 217.617 1235.83 217.474 1236.29 217.331 1236.69 217.155 1237.03 216.947 1237.39 216.712 1237.7 216.458 1237.96 216.185 1238.22 215.911 1238.43 215.566 1238.59 215.15 1238.75 214.733 1238.87 214.225 1238.96 213.626 1239.05 213.027 1239.1 212.285 1239.1 211.4L1239.1 183.392C1239.1 182.376 1238.9 181.66 1238.51 181.243 1238.12 180.827 1237.56 180.618 1236.83 180.618 1236.02 180.618 1234.83 181.035 1233.24 181.868 1231.65 182.702 1229.59 183.939 1227.07 185.579 1226.73 184.98 1226.41 184.382 1226.13 183.783 1225.84 183.184 1225.54 182.572 1225.23 181.947 1228.46 180.176 1231.66 178.411 1234.82 176.654 1237.98 174.896 1241.19 173.145 1244.45 171.4Z" fill-rule="evenodd"/><text fill="#000000" fill-opacity="0" font-family="Arial,Arial_MSFontService,sans-serif" font-size="50.3125" x="1225.23" y="215.423">1</text><path d="M1383.5 157.5C1383.5 100.062 1430.06 53.5001 1487.5 53.5001 1544.94 53.5001 1591.5 100.062 1591.5 157.5 1591.5 214.938 1544.94 261.5 1487.5 261.5 1430.06 261.5 1383.5 214.938 1383.5 157.5Z" stroke="#000000" stroke-width="4.58333" stroke-miterlimit="8" fill="none" fill-rule="evenodd"/><path d="M1434.4 146.489C1435.51 146.489 1436.49 146.614 1437.33 146.865 1438.17 147.116 1438.91 147.501 1439.56 148.02 1440.2 148.539 1440.78 149.21 1441.28 150.034 1441.78 150.857 1442.26 151.976 1442.73 153.391 1443.19 154.805 1443.63 156.56 1444.04 158.655 1444.46 160.749 1444.82 162.925 1445.14 165.18L1445.68 165.18C1449.12 160.346 1451.72 156.81 1453.5 154.572 1455.27 152.335 1456.76 150.669 1457.98 149.577 1459.2 148.485 1460.37 147.715 1461.5 147.268 1462.63 146.82 1464.12 146.596 1465.98 146.596 1467.67 146.596 1469.05 146.811 1470.12 147.241L1467.97 156.963 1464.21 156.963C1464 155.459 1463.37 154.707 1462.33 154.707 1462.01 154.707 1461.67 154.76 1461.31 154.868 1460.95 154.975 1460.51 155.208 1460 155.566 1459.48 155.924 1458.72 156.622 1457.71 157.661 1456.71 158.699 1455.58 159.97 1454.33 161.474 1453.08 162.978 1451.79 164.554 1450.46 166.201L1446.81 170.766C1447.45 174.204 1448.06 177.176 1448.64 179.682 1449.21 182.189 1449.72 184.275 1450.17 185.94 1450.61 187.605 1451.01 188.921 1451.35 189.887 1451.69 190.854 1452.06 191.579 1452.45 192.063 1452.84 192.546 1453.25 192.886 1453.66 193.083 1454.07 193.28 1454.54 193.379 1455.08 193.379 1456.05 193.379 1456.99 193.003 1457.9 192.251 1458.81 191.499 1460.13 189.798 1461.85 187.148L1465.34 189.458C1462.83 193.182 1460.57 195.805 1458.55 197.326 1456.52 198.848 1454.11 199.609 1451.32 199.609 1449.78 199.609 1448.47 199.332 1447.4 198.777 1446.33 198.222 1445.4 197.335 1444.61 196.118 1443.82 194.9 1443.12 193.003 1442.51 190.425 1441.4 185.841 1440.72 182.332 1440.47 179.897L1439.93 179.897C1436.14 185.232 1433.32 189.064 1431.48 191.391 1429.63 193.719 1428.11 195.438 1426.91 196.548 1425.71 197.658 1424.55 198.436 1423.42 198.884 1422.29 199.332 1420.8 199.555 1418.93 199.555 1417.25 199.555 1415.87 199.341 1414.8 198.911L1416.95 189.189 1420.71 189.189C1420.92 190.693 1421.55 191.445 1422.59 191.445 1423.09 191.445 1423.62 191.311 1424.17 191.042 1424.73 190.774 1425.52 190.129 1426.56 189.109 1427.6 188.088 1429.03 186.486 1430.86 184.301 1432.68 182.117 1435.33 178.841 1438.81 174.472 1438.27 171.644 1437.71 168.922 1437.14 166.308 1436.57 163.694 1435.98 161.26 1435.37 159.004 1434.76 156.748 1434.26 155.271 1433.87 154.572 1433.47 153.874 1433.05 153.391 1432.6 153.122 1432.16 152.854 1431.59 152.719 1430.91 152.719 1430.16 152.719 1429.48 152.89 1428.87 153.23 1428.26 153.57 1427.6 154.161 1426.88 155.002 1426.17 155.844 1425.22 157.16 1424.04 158.95L1420.54 156.64C1422.8 153.239 1424.97 150.696 1427.04 149.013 1429.12 147.33 1431.57 146.489 1434.4 146.489Z" fill-rule="evenodd"/><text fill="#000000" fill-opacity="0" font-family="Arial,Arial_MSFontService,sans-serif" font-size="53.1201" x="1414.8" y="192.969">ЁЭСе</text><path d="M1493.87 170.622C1496.58 170.622 1498.89 170.928 1500.8 171.54 1502.71 172.152 1504.27 172.979 1505.47 174.021 1506.67 175.062 1507.53 176.312 1508.07 177.771 1508.6 179.229 1508.87 180.804 1508.87 182.497 1508.87 183.513 1508.8 184.457 1508.65 185.329 1508.51 186.202 1508.26 187.061 1507.91 187.907 1507.56 188.754 1507.1 189.607 1506.52 190.466 1505.95 191.325 1505.23 192.237 1504.38 193.2 1503.72 194.034 1502.88 194.997 1501.84 196.091 1500.79 197.185 1499.65 198.357 1498.42 199.607 1497.18 200.857 1495.89 202.159 1494.53 203.513 1493.18 204.867 1491.86 206.208 1490.59 207.536 1489.31 208.864 1488.14 210.153 1487.07 211.403 1486 212.653 1485.13 213.799 1484.45 214.841L1498.91 214.841C1500.13 214.841 1501.11 214.795 1501.84 214.704 1502.57 214.613 1503.17 214.411 1503.65 214.099 1504.13 213.786 1504.54 213.311 1504.88 212.673 1505.22 212.035 1505.61 211.156 1506.05 210.036L1509.69 210.036C1509.56 211.885 1509.43 213.747 1509.32 215.622 1509.2 217.497 1509.08 219.359 1508.95 221.208L1475.86 221.208 1475.86 219.177C1476.48 217.771 1477.21 216.384 1478.05 215.017 1478.88 213.649 1479.82 212.263 1480.86 210.857 1481.9 209.45 1483.09 207.998 1484.41 206.501 1485.74 205.004 1487.21 203.448 1488.83 201.833 1491.28 199.385 1493.27 197.295 1494.8 195.564 1496.34 193.832 1497.55 192.289 1498.44 190.935 1499.32 189.58 1499.93 188.33 1500.25 187.185 1500.58 186.039 1500.74 184.815 1500.74 183.513 1500.74 182.185 1500.55 180.961 1500.18 179.841 1499.8 178.721 1499.26 177.771 1498.55 176.989 1497.85 176.208 1496.96 175.596 1495.88 175.153 1494.8 174.711 1493.55 174.489 1492.15 174.489 1489.73 174.489 1487.7 175.147 1486.05 176.462 1484.41 177.777 1483.14 179.685 1482.23 182.185L1477.11 182.185 1477.11 174.567C1480.44 173.187 1483.51 172.185 1486.31 171.56 1489.11 170.935 1491.63 170.622 1493.87 170.622Z" fill-rule="evenodd"/><text fill="#000000" fill-opacity="0" font-family="Arial,Arial_MSFontService,sans-serif" font-size="50.5859" x="1475.86" y="214.885">2</text><path d="M1765.81 173.117 1774 173.117 1774 182.52 1765.81 182.52ZM1745.96 173.117 1754.14 173.117 1754.14 182.52 1745.96 182.52ZM1726.1 173.117 1734.28 173.117 1734.28 182.52 1726.1 182.52Z" fill-rule="evenodd"/><text fill="#000000" fill-opacity="0" font-family="Arial,Arial_MSFontService,sans-serif" font-size="9.40234" x="1726.1" y="181.344">тАж</text><path d="M1904.5 157.5C1904.5 100.062 1950.84 53.5001 2008 53.5001 2065.16 53.5001 2111.5 100.062 2111.5 157.5 2111.5 214.938 2065.16 261.5 2008 261.5 1950.84 261.5 1904.5 214.938 1904.5 157.5Z" stroke="#000000" stroke-width="4.58333" stroke-miterlimit="8" fill="none" fill-rule="evenodd"/><path d="M1952.71 146.489C1953.82 146.489 1954.8 146.614 1955.64 146.865 1956.48 147.115 1957.22 147.5 1957.87 148.019 1958.51 148.539 1959.09 149.21 1959.59 150.034 1960.09 150.857 1960.57 151.976 1961.04 153.391 1961.5 154.805 1961.94 156.559 1962.35 158.654 1962.76 160.749 1963.13 162.924 1963.45 165.18L1963.99 165.18C1967.43 160.346 1970.03 156.81 1971.81 154.572 1973.58 152.334 1975.07 150.669 1976.29 149.577 1977.51 148.485 1978.68 147.715 1979.81 147.267 1980.94 146.82 1982.43 146.596 1984.29 146.596 1985.98 146.596 1987.36 146.811 1988.43 147.241L1986.28 156.962 1982.52 156.962C1982.31 155.458 1981.68 154.706 1980.64 154.706 1980.32 154.706 1979.98 154.76 1979.62 154.868 1979.26 154.975 1978.82 155.208 1978.3 155.566 1977.79 155.924 1977.02 156.622 1976.02 157.661 1975.02 158.699 1973.89 159.97 1972.64 161.474 1971.39 162.978 1970.1 164.553 1968.77 166.201L1965.12 170.766C1965.76 174.203 1966.37 177.176 1966.94 179.682 1967.52 182.189 1968.03 184.274 1968.48 185.939 1968.92 187.604 1969.32 188.92 1969.66 189.887 1970 190.854 1970.36 191.579 1970.76 192.062 1971.15 192.546 1971.56 192.886 1971.97 193.083 1972.38 193.28 1972.85 193.378 1973.39 193.378 1974.36 193.378 1975.3 193.002 1976.21 192.25 1977.12 191.498 1978.44 189.798 1980.16 187.148L1983.65 189.457C1981.14 193.181 1978.88 195.804 1976.85 197.326 1974.83 198.848 1972.42 199.609 1969.63 199.609 1968.09 199.609 1966.78 199.331 1965.71 198.776 1964.64 198.221 1963.7 197.335 1962.92 196.118 1962.13 194.9 1961.43 193.002 1960.82 190.424 1959.71 185.841 1959.03 182.332 1958.78 179.897L1958.24 179.897C1954.45 185.232 1951.63 189.064 1949.78 191.391 1947.94 193.718 1946.42 195.437 1945.22 196.547 1944.02 197.657 1942.86 198.436 1941.73 198.884 1940.6 199.331 1939.1 199.555 1937.24 199.555 1935.56 199.555 1934.18 199.34 1933.11 198.911L1935.26 189.189 1939.02 189.189C1939.23 190.693 1939.86 191.445 1940.9 191.445 1941.4 191.445 1941.92 191.31 1942.48 191.042 1943.03 190.773 1943.83 190.129 1944.87 189.108 1945.91 188.088 1947.34 186.485 1949.17 184.301 1950.99 182.117 1953.64 178.841 1957.12 174.472 1956.58 171.643 1956.02 168.922 1955.45 166.308 1954.88 163.694 1954.29 161.259 1953.68 159.003 1953.07 156.747 1952.57 155.27 1952.17 154.572 1951.78 153.874 1951.36 153.391 1950.91 153.122 1950.46 152.853 1949.9 152.719 1949.22 152.719 1948.47 152.719 1947.79 152.889 1947.18 153.229 1946.57 153.57 1945.91 154.16 1945.19 155.002 1944.48 155.843 1943.53 157.159 1942.35 158.95L1938.85 156.64C1941.11 153.238 1943.28 150.696 1945.35 149.013 1947.43 147.33 1949.88 146.489 1952.71 146.489Z" fill-rule="evenodd"/><text fill="#000000" fill-opacity="0" font-family="Arial,Arial_MSFontService,sans-serif" font-size="53.1201" x="1933.11" y="192.969">ЁЭСе</text><path d="M2009.95 167.887 2012.76 167.887 2005.89 198.278 2006.98 198.278C2007.97 198.278 2009.04 198.07 2010.18 197.653 2011.33 197.236 2012.47 196.696 2013.6 196.032 2014.74 195.368 2015.82 194.619 2016.86 193.786 2017.91 192.953 2018.82 192.113 2019.62 191.266 2020.41 190.42 2021.04 189.619 2021.51 188.864 2021.98 188.109 2022.22 187.471 2022.22 186.95 2022.22 186.325 2022.01 185.817 2021.59 185.426 2021.17 185.036 2020.42 184.775 2019.32 184.645L2019.79 182.145 2033.86 182.145 2034.83 184.567C2033.19 185.973 2031.62 187.275 2030.11 188.473 2028.6 189.671 2027.12 190.824 2025.67 191.93 2024.23 193.037 2022.78 194.124 2021.34 195.192 2019.89 196.26 2018.41 197.367 2016.9 198.512 2017.53 200.492 2018.17 202.503 2018.82 204.548 2019.47 206.592 2020.12 208.617 2020.77 210.622 2021.08 211.689 2021.38 212.607 2021.65 213.376 2021.92 214.144 2022.22 214.769 2022.53 215.251 2022.84 215.732 2023.18 216.091 2023.54 216.325 2023.91 216.559 2024.35 216.676 2024.87 216.676 2025.24 216.676 2025.61 216.611 2026 216.481 2026.4 216.351 2026.83 216.117 2027.31 215.778 2027.8 215.439 2028.34 214.977 2028.95 214.391 2029.57 213.805 2030.26 213.07 2031.04 212.184L2033.7 214.723C2032.48 215.973 2031.34 217.054 2030.28 217.966 2029.23 218.877 2028.22 219.626 2027.27 220.212 2026.32 220.798 2025.41 221.227 2024.52 221.501 2023.63 221.774 2022.74 221.911 2021.82 221.911 2020.18 221.911 2018.86 221.501 2017.86 220.68 2016.86 219.86 2016 218.688 2015.3 217.165 2014.6 215.641 2013.95 213.799 2013.37 211.637 2012.78 209.476 2012.1 207.067 2011.32 204.411 2011.13 203.786 2010.96 203.285 2010.79 202.907 2010.62 202.529 2010.41 202.243 2010.15 202.048 2009.88 201.852 2009.56 201.729 2009.17 201.676 2008.78 201.624 2008.28 201.598 2007.68 201.598L2005.18 201.598 2000.89 221.208 1993.39 221.208 2002.84 179.255C2003.15 177.874 2003.37 176.787 2003.5 175.993 2003.63 175.199 2003.7 174.489 2003.7 173.864 2003.7 173.369 2003.62 172.939 2003.45 172.575 2003.28 172.21 2003 171.917 2002.61 171.696 2002.22 171.475 2001.69 171.312 2001.04 171.208 2000.39 171.104 1999.59 171.038 1998.62 171.012L1999.21 168.356Z" fill-rule="evenodd"/><text fill="#000000" fill-opacity="0" font-family="Arial,Arial_MSFontService,sans-serif" font-size="54.0234" x="1993.39" y="215.158">ЁЭСШ</text><path d="M2426.5 157.5C2426.5 100.062 2473.06 53.5001 2530.5 53.5001 2587.94 53.5001 2634.5 100.062 2634.5 157.5 2634.5 214.938 2587.94 261.5 2530.5 261.5 2473.06 261.5 2426.5 214.938 2426.5 157.5Z" stroke="#000000" stroke-width="4.58333" stroke-miterlimit="8" fill="none" fill-rule="evenodd"/><path d="M2485 138.17C2486.11 138.17 2487.09 138.295 2487.93 138.546 2488.77 138.797 2489.51 139.181 2490.16 139.701 2490.8 140.22 2491.37 140.891 2491.88 141.715 2492.38 142.538 2492.86 143.657 2493.33 145.072 2493.79 146.486 2494.23 148.241 2494.64 150.335 2495.05 152.43 2495.42 154.605 2495.74 156.861L2496.28 156.861C2499.72 152.027 2502.32 148.491 2504.09 146.253 2505.87 144.015 2507.36 142.35 2508.58 141.258 2509.8 140.166 2510.97 139.396 2512.1 138.949 2513.23 138.501 2514.72 138.277 2516.58 138.277 2518.27 138.277 2519.64 138.492 2520.72 138.922L2518.57 148.644 2514.81 148.644C2514.59 147.14 2513.97 146.388 2512.93 146.388 2512.61 146.388 2512.27 146.441 2511.91 146.549 2511.55 146.656 2511.11 146.889 2510.59 147.247 2510.07 147.605 2509.31 148.303 2508.31 149.342 2507.31 150.38 2506.18 151.651 2504.93 153.155 2503.67 154.659 2502.38 156.235 2501.06 157.882L2497.41 162.447C2498.05 165.885 2498.66 168.857 2499.23 171.363 2499.81 173.87 2500.32 175.956 2500.76 177.621 2501.21 179.286 2501.61 180.602 2501.95 181.568 2502.29 182.535 2502.65 183.26 2503.05 183.744 2503.44 184.227 2503.84 184.567 2504.26 184.764 2504.67 184.961 2505.14 185.06 2505.68 185.06 2506.65 185.06 2507.59 184.684 2508.5 183.932 2509.41 183.18 2510.73 181.479 2512.45 178.829L2515.94 181.139C2513.43 184.863 2511.17 187.485 2509.14 189.007 2507.12 190.529 2504.71 191.29 2501.92 191.29 2500.38 191.29 2499.07 191.012 2498 190.457 2496.92 189.902 2495.99 189.016 2495.21 187.799 2494.42 186.581 2493.72 184.684 2493.11 182.105 2492 177.522 2491.32 174.013 2491.07 171.578L2490.53 171.578C2486.74 176.913 2483.92 180.745 2482.07 183.072 2480.23 185.4 2478.71 187.118 2477.51 188.228 2476.31 189.339 2475.14 190.117 2474.02 190.565 2472.89 191.012 2471.39 191.236 2469.53 191.236 2467.85 191.236 2466.47 191.021 2465.4 190.592L2467.54 180.87 2471.3 180.87C2471.52 182.374 2472.15 183.126 2473.18 183.126 2473.69 183.126 2474.21 182.992 2474.77 182.723 2475.32 182.455 2476.12 181.81 2477.16 180.79 2478.2 179.769 2479.63 178.167 2481.46 175.982 2483.28 173.798 2485.93 170.522 2489.4 166.153 2488.87 163.325 2488.31 160.603 2487.74 157.989 2487.17 155.375 2486.58 152.94 2485.97 150.685 2485.36 148.429 2484.86 146.952 2484.46 146.253 2484.07 145.555 2483.65 145.072 2483.2 144.803 2482.75 144.535 2482.19 144.4 2481.51 144.4 2480.76 144.4 2480.08 144.57 2479.47 144.911 2478.86 145.251 2478.2 145.842 2477.48 146.683 2476.76 147.525 2475.82 148.84 2474.63 150.631L2471.14 148.321C2473.4 144.92 2475.56 142.377 2477.64 140.694 2479.72 139.011 2482.17 138.17 2485 138.17Z" fill-rule="evenodd"/><text fill="#000000" fill-opacity="0" font-family="Arial,Arial_MSFontService,sans-serif" font-size="53.1201" x="2465.4" y="184.65">ЁЭСе</text><path d="M2539.68 173.397 2542.38 173.397 2534.25 211.678C2533.6 214.647 2532.76 217.192 2531.73 219.315 2530.7 221.437 2529.45 223.175 2527.96 224.53 2526.48 225.884 2524.74 226.88 2522.77 227.518 2520.79 228.156 2518.52 228.475 2515.97 228.475 2515.29 228.475 2514.64 228.442 2514.02 228.377 2513.39 228.312 2512.83 228.214 2512.34 228.084L2513.31 223.983C2513.62 224.113 2514.04 224.198 2514.56 224.237 2515.08 224.276 2515.68 224.295 2516.36 224.295 2517.64 224.295 2518.77 224.126 2519.78 223.787 2520.78 223.449 2521.68 222.837 2522.47 221.951 2523.27 221.066 2523.98 219.849 2524.62 218.299 2525.26 216.75 2525.85 214.764 2526.4 212.342 2527.31 208.123 2528.18 204.165 2529.02 200.467 2529.85 196.769 2530.53 193.67 2531.07 191.17 2531.6 188.67 2532.02 186.678 2532.34 185.194 2532.65 183.709 2532.88 182.563 2533.02 181.756 2533.16 180.949 2533.25 180.376 2533.27 180.037 2533.3 179.699 2533.31 179.425 2533.31 179.217 2533.31 178.306 2532.97 177.635 2532.28 177.205 2531.59 176.776 2530.37 176.535 2528.62 176.483L2529.21 173.826ZM2538.23 157.655 2546.09 157.655 2544.17 166.053 2536.32 166.053Z" fill-rule="evenodd"/><text fill="#000000" fill-opacity="0" font-family="Arial,Arial_MSFontService,sans-serif" font-size="70.8203" x="2512.34" y="219.622">ЁЭСЧ</text><path d="M2948.5 157.5C2948.5 100.062 2995.06 53.5001 3052.5 53.5001 3109.94 53.5001 3156.5 100.062 3156.5 157.5 3156.5 214.938 3109.94 261.5 3052.5 261.5 2995.06 261.5 2948.5 214.938 2948.5 157.5Z" stroke="#000000" stroke-width="4.58333" stroke-miterlimit="8" fill="none" fill-rule="evenodd"/><path d="M2995.78 146.489C2996.89 146.489 2997.87 146.614 2998.71 146.865 2999.55 147.115 3000.29 147.5 3000.94 148.019 3001.58 148.539 3002.16 149.21 3002.66 150.034 3003.16 150.857 3003.64 151.976 3004.11 153.391 3004.57 154.805 3005.01 156.559 3005.42 158.654 3005.83 160.749 3006.2 162.924 3006.52 165.18L3007.06 165.18C3010.5 160.346 3013.1 156.81 3014.88 154.572 3016.65 152.334 3018.14 150.669 3019.36 149.577 3020.58 148.485 3021.75 147.715 3022.88 147.267 3024.01 146.82 3025.5 146.596 3027.36 146.596 3029.05 146.596 3030.43 146.811 3031.5 147.241L3029.35 156.962 3025.59 156.962C3025.38 155.458 3024.75 154.706 3023.71 154.706 3023.39 154.706 3023.05 154.76 3022.69 154.868 3022.33 154.975 3021.89 155.208 3021.38 155.566 3020.86 155.924 3020.09 156.622 3019.09 157.661 3018.09 158.699 3016.96 159.97 3015.71 161.474 3014.46 162.978 3013.17 164.553 3011.84 166.201L3008.19 170.766C3008.83 174.203 3009.44 177.176 3010.02 179.682 3010.59 182.189 3011.1 184.274 3011.55 185.939 3011.99 187.604 3012.39 188.92 3012.73 189.887 3013.07 190.854 3013.43 191.579 3013.83 192.062 3014.22 192.546 3014.63 192.886 3015.04 193.083 3015.45 193.28 3015.92 193.378 3016.46 193.378 3017.43 193.378 3018.37 193.002 3019.28 192.25 3020.19 191.498 3021.51 189.798 3023.23 187.148L3026.72 189.457C3024.21 193.181 3021.95 195.804 3019.92 197.326 3017.9 198.848 3015.49 199.609 3012.7 199.609 3011.16 199.609 3009.85 199.331 3008.78 198.776 3007.71 198.221 3006.77 197.335 3005.99 196.118 3005.2 194.9 3004.5 193.002 3003.89 190.424 3002.78 185.841 3002.1 182.332 3001.85 179.897L3001.31 179.897C2997.52 185.232 2994.7 189.064 2992.85 191.391 2991.01 193.718 2989.49 195.437 2988.29 196.547 2987.09 197.657 2985.93 198.436 2984.8 198.884 2983.67 199.331 2982.18 199.555 2980.31 199.555 2978.63 199.555 2977.25 199.34 2976.18 198.911L2978.33 189.189 2982.09 189.189C2982.3 190.693 2982.93 191.445 2983.97 191.445 2984.47 191.445 2984.99 191.31 2985.55 191.042 2986.1 190.773 2986.9 190.129 2987.94 189.108 2988.98 188.088 2990.41 186.485 2992.24 184.301 2994.06 182.117 2996.71 178.841 3000.19 174.472 2999.65 171.643 2999.09 168.922 2998.52 166.308 2997.95 163.694 2997.36 161.259 2996.75 159.003 2996.14 156.747 2995.64 155.27 2995.24 154.572 2994.85 153.874 2994.43 153.391 2993.98 153.122 2993.53 152.853 2992.97 152.719 2992.29 152.719 2991.54 152.719 2990.86 152.889 2990.25 153.229 2989.64 153.57 2988.98 154.16 2988.26 155.002 2987.55 155.843 2986.6 157.159 2985.42 158.95L2981.92 156.64C2984.18 153.238 2986.35 150.696 2988.42 149.013 2990.5 147.33 2992.95 146.489 2995.78 146.489Z" fill-rule="evenodd"/><text fill="#000000" fill-opacity="0" font-family="Arial,Arial_MSFontService,sans-serif" font-size="53.1201" x="2976.18" y="192.969">ЁЭСе</text><path d="M3046.15 181.325C3048.07 181.325 3049.56 181.956 3050.62 183.219 3051.67 184.482 3052.2 186.143 3052.2 188.2 3052.2 188.721 3052.15 189.268 3052.06 189.841 3051.97 190.413 3051.81 190.96 3051.57 191.481L3052.12 191.676C3054.65 188.213 3057.14 185.622 3059.6 183.903 3062.06 182.184 3064.61 181.325 3067.24 181.325 3070 181.325 3072.06 182.067 3073.43 183.551 3074.8 185.036 3075.48 187.119 3075.48 189.801 3075.48 190.609 3075.36 191.729 3075.13 193.161 3074.9 194.593 3074.6 196.156 3074.23 197.848 3073.87 199.541 3073.48 201.279 3073.06 203.063 3072.64 204.847 3072.25 206.494 3071.89 208.005 3071.52 209.515 3071.22 210.804 3070.99 211.872 3070.75 212.939 3070.64 213.604 3070.64 213.864 3070.64 214.854 3070.82 215.57 3071.18 216.012 3071.55 216.455 3072.13 216.676 3072.94 216.676 3073.44 216.676 3073.93 216.585 3074.41 216.403 3074.89 216.221 3075.39 215.934 3075.91 215.544 3076.43 215.153 3077 214.652 3077.63 214.04 3078.25 213.428 3078.96 212.692 3079.74 211.833L3082.43 214.411C3081.16 215.713 3079.99 216.833 3078.92 217.77 3077.85 218.708 3076.82 219.482 3075.81 220.094 3074.81 220.706 3073.81 221.162 3072.82 221.462 3071.84 221.761 3070.78 221.911 3069.66 221.911 3068.72 221.911 3067.86 221.729 3067.06 221.364 3066.27 220.999 3065.59 220.498 3065.01 219.86 3064.44 219.222 3064 218.467 3063.68 217.594 3063.37 216.722 3063.22 215.765 3063.22 214.723 3063.22 213.682 3063.33 212.464 3063.55 211.071 3063.77 209.678 3064.1 208.148 3064.54 206.481 3065.01 204.788 3065.45 203.167 3065.85 201.618 3066.26 200.068 3066.61 198.636 3066.91 197.321 3067.21 196.006 3067.44 194.834 3067.61 193.805 3067.78 192.777 3067.86 191.924 3067.86 191.247 3067.86 189.632 3067.56 188.447 3066.95 187.692 3066.33 186.937 3065.35 186.559 3064 186.559 3063.22 186.559 3062.38 186.761 3061.48 187.165 3060.58 187.568 3059.67 188.128 3058.76 188.844 3057.85 189.561 3056.96 190.407 3056.09 191.383 3055.21 192.36 3054.41 193.402 3053.68 194.508 3052.95 195.615 3052.31 196.774 3051.75 197.985 3051.19 199.196 3050.78 200.4 3050.52 201.598L3046.15 221.208 3038.49 221.208 3044.35 195.739C3044.69 194.385 3044.93 193.174 3045.09 192.106 3045.25 191.038 3045.32 190.166 3045.32 189.489 3045.32 187.588 3044.56 186.637 3043.02 186.637 3042.55 186.637 3042.08 186.735 3041.59 186.93 3041.11 187.126 3040.6 187.419 3040.07 187.809 3039.54 188.2 3038.96 188.695 3038.33 189.294 3037.71 189.893 3037 190.596 3036.22 191.403L3033.53 188.864C3034.83 187.536 3036.02 186.397 3037.1 185.446 3038.18 184.495 3039.21 183.714 3040.19 183.102 3041.16 182.49 3042.13 182.041 3043.1 181.755 3044.06 181.468 3045.08 181.325 3046.15 181.325Z" fill-rule="evenodd"/><text fill="#000000" fill-opacity="0" font-family="Arial,Arial_MSFontService,sans-serif" font-size="40.5859" x="3033.53" y="216.838">ЁЭСЫ</text><path d="M2269.02 173.117 2277.21 173.117 2277.21 182.52 2269.02 182.52ZM2249.16 173.117 2257.35 173.117 2257.35 182.52 2249.16 182.52ZM2229.31 173.117 2237.49 173.117 2237.49 182.52 2229.31 182.52Z" fill-rule="evenodd"/><text fill="#000000" fill-opacity="0" font-family="Arial,Arial_MSFontService,sans-serif" font-size="9.40234" x="2229.31" y="181.344">тАж</text><path d="M2808.6 173.117 2816.78 173.117 2816.78 182.52 2808.6 182.52ZM2788.74 173.117 2796.93 173.117 2796.93 182.52 2788.74 182.52ZM2768.88 173.117 2777.07 173.117 2777.07 182.52 2768.88 182.52Z" fill-rule="evenodd"/><text fill="#000000" fill-opacity="0" font-family="Arial,Arial_MSFontService,sans-serif" font-size="9.40234" x="2768.88" y="181.344">тАж</text><path d="M1004.5 1243.06 2403.43 1243.06 2403.43 1249.94 1004.5 1249.94ZM2398.85 1232.75 2426.35 1246.5 2398.85 1260.25Z"/><path d="M2533.94 261.5 2533.94 1120.1 2527.06 1120.1 2527.06 261.5ZM2544.25 1115.51 2530.5 1143.01 2516.75 1115.51Z"/><path d="M2426.5 1246.5C2426.5 1189.06 2473.06 1142.5 2530.5 1142.5 2587.94 1142.5 2634.5 1189.06 2634.5 1246.5 2634.5 1303.94 2587.94 1350.5 2530.5 1350.5 2473.06 1350.5 2426.5 1303.94 2426.5 1246.5Z" stroke="#000000" stroke-width="4.58333" stroke-miterlimit="8" fill="none" fill-rule="evenodd"/><path d="M2486.04 1227.28 2510.37 1251.56 2534.7 1227.28 2539.75 1232.28 2515.68 1256.77 2539.8 1281.16 2534.43 1286.53 2510.37 1261.98 2485.55 1286.31 2480.56 1281.26 2505.1 1256.77 2480.66 1232.65Z" fill-rule="evenodd"/><text fill="#000000" fill-opacity="0" font-family="Arial,Arial_MSFontService,sans-serif" font-size="59.2432" x="2480.56" y="1279.12">├Ч</text></g></svg>